<?xml version="1.0" encoding="utf-8"?>
<!-- Generator: Adobe Illustrator 27.4.0, SVG Export Plug-In . SVG Version: 6.00 Build 0)  -->
<svg version="1.1" id="Group_23" xmlns="http://www.w3.org/2000/svg" xmlns:xlink="http://www.w3.org/1999/xlink" x="0px" y="0px"
	 viewBox="0 0 209.3 57.9" style="enable-background:new 0 0 209.3 57.9;" xml:space="preserve">
<style type="text/css">
	.st0{display:none;}
	.st1{display:inline;fill:#443322;}
	.st2{fill:#FFFFFF;}
	.st3{fill:#DD9F1C;}
	.st4{fill:#FFD56D;}
	.st5{fill:none;stroke:#FFFFFF;stroke-width:2.5;}
	.st6{display:inline;fill:#FFFFFF;}
	.st7{fill:#F9BF4E;}
	.st8{fill:none;}
	.st9{font-family:'ArialMT';}
	.st10{font-size:12px;}
	.st11{enable-background:new    ;}
	.st12{fill:#443322;}
</style>
<g id="Group_18" transform="translate(63.348 20.775)" class="st0">
	<path id="Path_15" class="st1" d="M2,1.5C1.9,1,1.7,0.5,1.4,0C1.3-0.3,1-0.7,0.7-0.9C0.5-1.2,0.2-1.4-0.1-1.5
		c-0.4-0.1-0.8-0.2-1.2-0.3v-0.6h1c0.5,0,0.9,0.1,1.4,0.1c0.5,0.1,1,0.2,1.4,0.5c0.5,0.3,1,0.7,1.4,1.2C4.4,0,4.7,0.8,5,1.5
		l4.1,11.7l3.3-9.6l-0.8-2.1c-0.2-0.5-0.4-1-0.6-1.4c-0.2-0.4-0.4-0.7-0.7-1C10-1.1,9.7-1.3,9.4-1.4C9-1.5,8.6-1.6,8.2-1.7v-0.6h1
		c0.5,0,0.9,0.1,1.4,0.1c0.5,0.1,1,0.2,1.4,0.5c0.5,0.3,1,0.7,1.4,1.2c0.5,0.6,0.9,1.3,1.1,2.1l4.1,11.7L23.8-2h1.3l-7,20.2h-0.6
		L12.9,5.5L8.6,18.3H8L2,1.5z"/>
	<path id="Path_16" class="st1" d="M43.2,4.3c-0.2-1.6-1-3.2-2.1-4.4c-1.1-1-2.6-1.5-4.1-1.4c-1,0-1.9,0.1-2.8,0.5
		c-0.9,0.4-1.7,0.9-2.3,1.6c-0.7,0.9-1.3,1.9-1.6,3c-0.4,1.5-0.6,3-0.5,4.6c0,1.1,0.1,2.2,0.4,3.3c0.2,1,0.7,2,1.3,2.9
		c0.6,0.8,1.4,1.5,2.2,2c1,0.6,2.2,0.8,3.3,0.8c1.4,0,2.7-0.3,3.9-1.1c1.2-0.8,2.2-1.9,2.9-3.1l0.6,0.5c-0.4,0.9-1,1.7-1.6,2.4
		c-0.6,0.6-1.2,1.1-1.9,1.6c-0.7,0.4-1.5,0.7-2.2,0.8c-0.9,0.2-1.7,0.3-2.6,0.3c-1.3,0-2.7-0.3-3.9-0.8c-1.1-0.5-2.1-1.3-3-2.2
		c-0.8-1-1.5-2.1-1.9-3.3c-0.4-1.3-0.7-2.7-0.7-4c0-1.5,0.3-2.9,0.7-4.3c0.5-1.3,1.2-2.4,2-3.5c0.8-1,1.8-1.8,3-2.3
		c1.3-0.4,2.6-0.7,3.9-0.7c1.5,0,3,0.2,4.4,0.7c1,0.3,1.9,0.9,2.7,1.7c0.4,0.6,0.7,1.3,0.7,2c0.1,0.8,0.1,1.7,0.1,2.6h-0.7L43.2,4.3
		z"/>
	<path id="Path_17" class="st1" d="M53.9-2.1c0.8,0,1.6,0.1,2.7,0.1c0.9,0.1,1.8,0.4,2.7,0.7c0.8,0.3,1.5,0.9,2,1.6
		c0.6,0.8,0.9,1.8,0.8,2.8c0,0.9-0.4,1.8-1,2.5c-0.8,0.9-1.8,1.5-3,1.8c0.8,0.1,1.7,0.3,2.5,0.7c0.6,0.2,1.1,0.6,1.5,1.1
		c0.4,0.4,0.7,0.9,0.8,1.4c0.1,0.6,0.2,1.1,0.2,1.7c0,1-0.2,2-0.7,2.8c-0.5,0.7-1.2,1.3-2,1.7s-1.7,0.7-2.7,0.8
		c-1,0.1-1.9,0.2-2.9,0.2h-6.1V1.6c0-0.7-0.1-1.5-0.4-2.2c-0.3-0.5-0.8-0.8-1.8-0.8h-0.6V-2L53.9-2.1L53.9-2.1z M54.4,7.2
		c0.6,0,1.2-0.1,1.8-0.3c0.5-0.2,1.1-0.4,1.6-0.7s0.8-0.8,1.1-1.3s0.4-1.2,0.4-1.8c0-0.7-0.2-1.3-0.5-1.8S58,0.3,57.5,0
		c-0.6-0.3-1.1-0.6-1.8-0.7c-0.6-0.1-1.3-0.2-1.9-0.2c-0.4,0-0.8,0-1.2,0.1s-0.7,0.1-1.1,0.2v7.9L54.4,7.2z M51.5,8.4v8
		c0.5,0.1,0.9,0.3,1.4,0.3c0.5,0.1,1,0.1,1.4,0.1c1.5,0.1,3-0.3,4.3-1.1c1.7-1.4,2-4,0.6-5.7c-0.2-0.2-0.3-0.4-0.5-0.5
		c-1.3-0.8-2.8-1.2-4.3-1.1L51.5,8.4L51.5,8.4z"/>
	<path id="Path_18" class="st1" d="M89.9,4.3c-0.2-1.6-1-3.2-2.1-4.4c-1.1-0.9-2.6-1.4-4.1-1.3c-1,0-1.9,0.1-2.8,0.5
		S79.2,0,78.6,0.7c-0.7,0.9-1.3,1.9-1.6,3c-0.4,1.5-0.6,3-0.5,4.6c0,1.1,0.1,2.2,0.4,3.3c0.2,1,0.7,2,1.3,2.9c0.6,0.9,1.3,1.6,2.2,2
		c1,0.6,2.2,0.8,3.3,0.8c1.4,0,2.7-0.3,3.9-1.1c1.2-0.8,2.2-1.9,2.9-3.1l0.6,0.5c-0.4,0.9-1,1.7-1.6,2.4c-0.6,0.6-1.2,1.1-1.9,1.6
		c-0.7,0.4-1.5,0.7-2.2,0.8c-0.9,0.2-1.7,0.3-2.6,0.3c-1.3,0-2.7-0.3-3.9-0.8c-1.1-0.5-2.1-1.3-3-2.2c-0.8-1-1.5-2.1-1.9-3.3
		c-0.4-1.3-0.7-2.7-0.7-4c0-1.5,0.3-2.9,0.7-4.3c0.5-1.3,1.2-2.4,2-3.5c0.8-1,1.8-1.8,3-2.3c1.3-0.5,2.6-0.8,3.8-0.8
		c1.5,0,3,0.2,4.4,0.7c1,0.3,1.9,0.9,2.7,1.7c0.4,0.6,0.7,1.3,0.7,2c0.1,0.9,0.1,1.7,0.1,2.6H90L89.9,4.3z"/>
	<path id="Path_19" class="st1" d="M112.3,17.9c-0.4,0.1-0.8,0.1-1.2,0.1c-0.4,0-0.8-0.1-1.2-0.1c-0.5-0.1-1-0.3-1.4-0.5
		c-0.5-0.3-1-0.7-1.4-1.2c-0.5-0.6-0.9-1.4-1.2-2.1l-0.7-2h-8.5l-2.5,5.8h-1.4l8.5-20h0.9l6.7,16.2c0.3,0.5,0.5,1,0.7,1.4
		c0.2,0.3,0.4,0.7,0.7,1c0.2,0.2,0.5,0.4,0.8,0.5s0.7,0.2,1.1,0.3L112.3,17.9L112.3,17.9z M97.1,11h7.4l-3.6-8.8L97.1,11z"/>
	<path id="Path_20" class="st1" d="M124-2.1c0.4,0,0.9,0.1,1.3,0.2c0.3,0.1,0.6,0.3,0.8,0.5c0.2,0.2,0.3,0.5,0.4,0.7
		c0.1,0.3,0.1,0.6,0.1,0.9v2.3H126c0.1-1-0.3-2-1-2.7c-0.8-0.6-1.8-0.9-2.8-0.8h-4.8v8h6.9v1.2h-6.9v9.5h-2.7V1.6
		c0-0.7-0.1-1.5-0.4-2.2c-0.3-0.5-0.8-0.8-1.8-0.8h-0.6V-2L124-2.1L124-2.1z"/>
	<path id="Path_21" class="st1" d="M140.9-2.1c0.4,0,0.9,0.1,1.3,0.2c0.3,0.1,0.6,0.3,0.8,0.5s0.3,0.5,0.4,0.7
		c0.1,0.3,0.1,0.6,0.1,0.9v2.3h-0.6c0.1-1-0.3-2-1-2.7c-0.8-0.6-1.8-0.9-2.8-0.8h-5.7v7.9h8.2v1.2h-8.2v8.5h5.3
		c1.1,0,2.3-0.2,3.3-0.7c0.9-0.6,1.6-1.5,1.9-2.6l0.6,0.1l-1.1,2.9c-0.1,0.5-0.4,0.8-0.8,1.1c-0.4,0.3-1,0.4-1.5,0.4h-10.4V1.6
		c0-0.7-0.1-1.5-0.4-2.2c-0.3-0.5-0.8-0.8-1.8-0.8h-0.6V-2L140.9-2.1L140.9-2.1z"/>
</g>
<g id="Group_22">
	<path id="Intersection_1_2_" class="st2" d="M20.7,40.9c-0.5-0.4-1-0.9-1.5-1.4h22.2c-0.5,0.5-1,0.9-1.5,1.4H20.7z"/>
	<circle id="Ellipse_11_3_" class="st3" cx="28.9" cy="28.9" r="28.9"/>
	<g id="Ellipse_11_2_" transform="translate(1.703 1.703)">
		<circle id="Ellipse_13" class="st3" cx="27.2" cy="27.2" r="26.6"/>
		<g id="Group_19">
			<path id="Path_22" class="st2" d="M27.2,1.4c14.3,0,25.9,11.6,25.9,25.9S41.5,53.1,27.2,53.1S1.4,41.5,1.4,27.2l0,0
				C1.4,13,12.9,1.4,27.2,1.4L27.2,1.4 M27.2,0C12.2,0,0,12.2,0,27.2s12.2,27.2,27.2,27.2s27.2-12.2,27.2-27.2
				C54.5,12.2,42.3,0,27.2,0z"/>
		</g>
	</g>
	<g id="Ellipse_11_1_" transform="translate(12.261 12.261)">
		<circle id="Ellipse_14" class="st4" cx="16.7" cy="16.7" r="16"/>
		<path id="Path_23" class="st2" d="M16.7,1.4C25.2,1.4,32,8.2,32,16.7S25.2,32,16.7,32S1.4,25.2,1.4,16.7S8.2,1.4,16.7,1.4 M16.7,0
			C7.5,0,0,7.5,0,16.7s7.5,16.7,16.7,16.7s16.7-7.5,16.7-16.7S25.9,0,16.7,0z"/>
	</g>
	<path id="Path_13_1_" class="st5" d="M37.3,27c0,0,4.7-2.2,5.2,1s-7.7,6-7.7,6"/>
	<path id="Path_11_1_" class="st2" d="M17.7,21.1h20.4c0.8,0,1.4,0.6,1.4,1.4l-4.1,13.6c0,0.8-0.6,1.4-1.4,1.4H21.8
		c-0.8,0-1.4-0.6-1.4-1.4l-4.1-13.6C16.4,21.7,17,21.1,17.7,21.1z"/>
	<path id="Path_14_1_" class="st3" d="M18.5,25.3c-0.1-0.2,3.2,10.9,3.2,10.9h12.2l3.2-11.1c0,0-1.8,2.5-5.9,1.9
		S25.5,20.2,18.5,25.3z"/>
	<path id="Intersection_1_1_" class="st2" d="M19.3,40.9c-0.5-0.4-1-0.9-1.5-1.4H40c-0.5,0.5-1,0.9-1.5,1.4H19.3z"/>
	<g id="Group_20" transform="translate(6.403 4.768)" class="st0">
		<path id="Path_24" class="st6" d="M1.6,12.9c-0.2,0-0.3-0.1-0.5-0.1H0.7c-0.1,0-0.2,0.1-0.3,0.1C0.3,13,0.2,13,0.1,13.2L0,13.1
			L0.1,13l0.1-0.1c0.1-0.1,0.2-0.2,0.3-0.3s0.3-0.2,0.4-0.3c0.2-0.1,0.4-0.1,0.5-0.1c0.3,0,0.5,0,0.7,0.1L6,13.4l-1.9-2.7l-0.7-0.2
			c-0.2,0-0.3-0.1-0.5-0.1H2.5c-0.1,0-0.2,0.1-0.3,0.1c-0.1,0.1-0.2,0.1-0.3,0.3l-0.1-0.1l0.1-0.1C2,10.5,2,10.5,2,10.5
			c0-0.3,0.2-0.3,0.2-0.5c0.1-0.1,0.3-0.2,0.4-0.3c0.2,0,0.4-0.1,0.6-0.1c0.3,0,0.5,0,0.7,0.1L7.8,11l-3-4.4l0.3-0.3l4,5.8v0.2
			l-4.2-1.4l2.5,3.6l-0.1,0.2L1.6,12.9z"/>
		<path id="Path_25" class="st6" d="M13.4,3.5c-0.3-0.4-0.8-0.7-1.3-0.9c-0.5-0.1-1,0-1.4,0.3C10.4,3,10.2,3.2,10,3.5
			C9.9,3.7,9.8,4,9.7,4.3C9.6,4.7,9.6,5,9.7,5.4c0.1,0.5,0.3,0.9,0.6,1.4c0.2,0.3,0.4,0.6,0.7,0.9c0.2,0.2,0.5,0.5,0.8,0.6
			c0.3,0.1,0.6,0.2,1,0.2s0.8-0.1,1.1-0.3c0.4-0.2,0.7-0.6,1-1c0.2-0.4,0.3-0.9,0.3-1.4h0.3c0,0.3,0,0.6-0.1,1
			c0,0.3-0.1,0.5-0.3,0.7c-0.1,0.2-0.3,0.4-0.5,0.6s-0.4,0.4-0.7,0.5C13.5,8.8,13.1,9,12.7,9c-0.4,0.1-0.8,0-1.2-0.1
			s-0.8-0.3-1.1-0.6C10,8,9.7,7.6,9.5,7.2C9.3,6.8,9.1,6.4,9.1,5.9C9,5.5,9,5.1,9.1,4.6c0.1-0.4,0.2-0.8,0.5-1.2
			c0.2-0.3,0.5-0.6,0.9-0.8c0.4-0.3,0.9-0.4,1.4-0.5c0.3-0.1,0.7-0.1,1,0.1c0.2,0.1,0.4,0.2,0.5,0.4s0.3,0.5,0.5,0.7L13.4,3.5z"/>
		<path id="Path_26" class="st6" d="M17.8,0.1C18.4,0,19,0,19.6,0.1c0.3,0.1,0.5,0.2,0.7,0.4s0.4,0.6,0.4,0.9c0.1,0.3,0,0.6-0.1,0.9
			c-0.2,0.3-0.5,0.6-0.9,0.8c0.3,0,0.5,0,0.8,0.1c0.2,0,0.4,0.1,0.5,0.3c0.1,0.1,0.2,0.3,0.3,0.4c0.1,0.2,0.1,0.4,0.2,0.5
			c0.1,0.3,0.1,0.7-0.1,1c-0.1,0.3-0.3,0.5-0.5,0.7s-0.5,0.4-0.8,0.4c-0.3,0.1-0.6,0.2-1,0.2l-2,0.3l-1-5.2c0-0.2-0.1-0.5-0.3-0.7
			c-0.1-0.3-0.3-0.3-0.5-0.3h-0.2L15,0.6L17.8,0.1z M18.5,3c0.2-0.1,0.4-0.1,0.5-0.2s0.3-0.2,0.5-0.3c0.1-0.1,0.2-0.3,0.3-0.5
			c0.1-0.2,0.1-0.4,0-0.6c0-0.2-0.1-0.4-0.3-0.5c-0.1-0.2-0.3-0.3-0.5-0.3c-0.2-0.1-0.4-0.1-0.6-0.1s-0.4,0-0.6,0.1
			c-0.1,0-0.3,0.1-0.4,0.1c-0.1,0.1-0.3,0.1-0.3,0.1l0.5,2.5L18.5,3z M17.6,3.5l0.5,2.6h0.5c0.2,0,0.3,0,0.5-0.1
			c0.5,0,0.9-0.3,1.3-0.6c0.3-0.3,0.4-0.7,0.3-1.1s-0.3-0.8-0.7-1c-0.5-0.2-1-0.2-1.4-0.1L17.6,3.5z"/>
		<path id="Path_27" class="st6" d="M32,3.6c0.1-0.5,0-1.1-0.2-1.6c-0.2-0.4-0.6-0.7-1.1-0.9C30.4,1,30.1,1,29.7,1
			c-0.3,0-0.6,0.1-0.9,0.3S28.2,1.7,28,2c-0.3,0.4-0.5,0.9-0.7,1.4c-0.1,0.3-0.2,0.7-0.2,1.1c0,0.3,0,0.7,0.1,1s0.3,0.6,0.5,0.9
			s0.6,0.5,1,0.6c0.4,0.2,0.9,0.2,1.3,0.1s0.9-0.4,1.2-0.7l0.1,0.2c-0.2,0.2-0.5,0.4-0.7,0.5s-0.5,0.2-0.7,0.3
			c-0.2,0.1-0.4,0.1-0.6,0.1c-0.3,0-0.6-0.1-0.8-0.2c-0.4-0.1-0.8-0.4-1.2-0.7c-0.3-0.3-0.5-0.6-0.7-1s-0.3-0.8-0.3-1.2
			c0-0.4,0.1-0.9,0.2-1.3s0.4-0.9,0.7-1.2c0.3-0.3,0.6-0.6,1-0.9c0.4-0.2,0.8-0.3,1.2-0.4c0.4-0.1,0.8,0,1.2,0.1
			c0.5,0.2,0.9,0.4,1.3,0.7c0.3,0.2,0.5,0.5,0.6,0.8c0.1,0.2,0.1,0.5,0,0.7c-0.1,0.3-0.2,0.6-0.3,0.8L32,3.6z"/>
		<path id="Path_28" class="st6" d="M34.2,10.4V9.8h-0.1c-0.2,0.1-0.4,0.1-0.6,0c-0.3-0.1-0.6-0.2-0.8-0.4c-0.1-0.1-0.2-0.2-0.3-0.3
			s-0.2-0.3-0.3-0.5C32,8.4,32,8.2,32,8s0.1-0.4,0.3-0.6c0.1-0.2,0.3-0.3,0.5-0.4s0.5-0.1,0.7,0c0.3,0.1,0.5,0.2,0.7,0.3
			c0.3,0.2,0.6,0.3,0.8,0.5L35.4,8c0.2-0.2,0.3-0.5,0.4-0.7c0.1-0.2,0.1-0.4,0.1-0.5s-0.1-0.3-0.1-0.4c-0.1-0.1-0.2-0.2-0.3-0.3
			c-0.2-0.1-0.4-0.2-0.7-0.3c-0.3,0-0.5,0.1-0.7,0.3l-0.3-0.3c0.1-0.1,0.2-0.3,0.3-0.3c0.1-0.1,0.3-0.2,0.4-0.2h0.3
			c0.1,0,0.2,0.1,0.3,0.1c0.1,0.1,0.2,0.1,0.3,0.2c0.2,0.1,0.3,0.2,0.4,0.3C36,6,36.2,6.2,36.3,6.4s0.2,0.3,0.3,0.5
			c0,0.3,0,0.5-0.1,0.7c-0.1,0.4-0.3,0.7-0.5,1l-1.6,2.2L34.2,10.4z M35.3,8.3L35,8.1c-0.3-0.3-0.7-0.4-1.1-0.5
			c-0.3,0-0.6,0.1-0.7,0.3L33,8.4v0.3c0,0.1,0.1,0.2,0.1,0.3c0.1,0.1,0.1,0.2,0.3,0.3s0.3,0.2,0.5,0.2s0.4-0.1,0.5-0.1L35.3,8.3z"/>
		<path id="Path_29" class="st6" d="M41.6,9.1C41.5,9,41.4,9,41.3,8.9c-0.1-0.1-0.2-0.1-0.3-0.1s-0.3,0.1-0.4,0.1
			c-0.2,0.1-0.3,0.2-0.5,0.3l-0.3,0.2l0.9,1l-0.3,0.3l-0.9-1l-3.3,2.8l-0.6-0.7L39,9.1l-0.5-0.5l0.3-0.3l0.5,0.5l0.2-0.2
			c0.2-0.2,0.5-0.3,0.7-0.4c0.2-0.1,0.5-0.1,0.7,0c0.2,0,0.4,0.1,0.5,0.3c0.1,0.1,0.3,0.3,0.5,0.4c0.3,0.3,0.4,0.5,0.4,0.7v0.3
			c0,0.1-0.1,0.2-0.1,0.3l-0.4-0.1C42,9.8,41.9,9.4,41.6,9.1z"/>
		<path id="Path_30" class="st6" d="M41.4,16.6L40.1,14c-0.2,0.1-0.4,0.2-0.6,0.4c-0.2,0.1-0.3,0.3-0.4,0.5C39,15.1,39,15.3,39,15.4
			c0,0.2,0.1,0.4,0.1,0.5c0.1,0.2,0.3,0.5,0.5,0.6c0.3,0.1,0.5,0.2,0.8,0.3l-0.1,0.3c-0.4,0-0.8-0.1-1.1-0.3
			c-0.3-0.2-0.5-0.5-0.7-0.7c-0.1-0.3-0.2-0.6-0.3-0.9c0-0.3,0.1-0.6,0.1-0.8c0.1-0.3,0.3-0.5,0.5-0.7s0.5-0.4,0.7-0.5
			c0.3-0.1,0.6-0.3,0.9-0.3c0.3-0.1,0.6-0.1,0.9,0c0.3,0,0.5,0.2,0.7,0.3c0.2,0.2,0.4,0.4,0.5,0.7c0.3,0.5,0.4,1,0.2,1.6
			c-0.2,0.5-0.7,0.9-1.2,1.2L41.4,16.6z M41.3,15.6c0.4-0.2,0.8-0.5,1-0.8s0.2-0.6,0.1-0.9c-0.1-0.1-0.2-0.2-0.3-0.3
			s-0.3-0.1-0.5-0.1s-0.4,0-0.6,0.1c-0.2,0.1-0.5,0.2-0.7,0.3L41.3,15.6z"/>
	</g>
	<g id="Group_21" transform="translate(10.217 39.03)">
		<path id="Path_31" class="st2" d="M2.9,5.6C2.7,5.7,2.5,5.8,2.3,5.9H1.7c-0.2,0-0.4-0.1-0.5-0.2C1,5.6,0.8,5.4,0.6,5.2
			C0.5,5.1,0.4,4.9,0.3,4.7C0.1,4.5,0.1,4.3,0.1,4.1C0,3.9,0,3.7,0,3.5s0.1-0.3,0.2-0.4l0.7-0.5L1,2.7C0.7,3,0.5,3.4,0.5,3.9
			c0,0.4,0.2,0.8,0.4,1.1C1,5.1,1.1,5.2,1.2,5.3c0.1,0.1,0.2,0.1,0.3,0.1h0.3C2,5.4,2,5.3,2.2,5.2c0.2-0.1,0.3-0.3,0.3-0.5
			c0-0.3,0-0.5-0.1-0.8L2.2,2.7c-0.1-0.3-0.1-0.6,0-1C2.3,1.4,2.4,1.2,2.7,1c0.2,0,0.4-0.1,0.6-0.2s0.4-0.1,0.5,0
			C4,0.8,4.2,0.9,4.4,1c0.2,0.1,0.3,0.3,0.5,0.4C5,1.6,5.1,1.8,5.2,2s0.2,0.4,0.2,0.5c0.1,0.2,0.1,0.4,0,0.5c0,0.2-0.1,0.3-0.2,0.4
			L4.5,4L4.4,3.9c0.3-0.3,0.5-0.7,0.5-1.2c0-0.4-0.2-0.7-0.4-1C4.4,1.6,4.3,1.5,4.2,1.5C4.1,1.4,4,1.4,3.9,1.4H3.5
			c-0.1,0-0.2,0.1-0.3,0.1C3.1,1.6,3.1,1.7,3,1.8C2.9,1.8,2.9,1.9,2.9,2v0.3c0,0.2,0,0.3,0.1,0.5L3.2,4c0,0.2,0.1,0.4,0.1,0.5V5
			c0,0.1-0.1,0.2-0.1,0.3C3.1,5.4,2.9,5.4,2.9,5.6z"/>
		<path id="Path_32" class="st2" d="M3.9,8.3L3.3,7.8l1.8-2.2c0.1-0.2,0.3-0.3,0.3-0.5s0-0.3-0.2-0.5l0,0l0.1-0.1L5.8,5
			C6,5,6.1,5.1,6.1,5.2v0.2C6.1,5.5,6,5.6,6,5.7C5.9,5.9,5.8,6,5.7,6.1L3.9,8.3z M6.9,4.7C6.8,4.8,6.7,4.8,6.6,4.8s-0.2,0-0.3-0.1
			C6.1,4.5,6.1,4.2,6.3,4c0.1,0,0.2,0,0.3,0s0.2,0,0.3,0.1C7,4.1,7,4.2,7,4.4C7,4.5,7,4.6,6.9,4.7L6.9,4.7z"/>
		<path id="Path_33" class="st2" d="M7.2,7.2C7.3,7,7.4,6.9,7.4,6.7S7.3,6.4,7.1,6.3L6.9,6.2L7,6.1l0.6,0.3C7.8,6.5,7.9,6.6,8,6.7
			C8,6.8,8.1,7,8,7.1h0.1C8.3,7,8.4,7,8.6,7C8.8,7,9,7.1,9.2,7.2c0.1,0.1,0.3,0.2,0.4,0.3c0.1,0.1,0.2,0.3,0.3,0.4
			c0,0.2,0.1,0.4,0,0.5c0,0.2-0.1,0.5-0.3,0.7l-1.2,2.1l-0.6-0.3L9,8.8c0.1-0.2,0.1-0.3,0.2-0.5V7.9c0-0.1-0.1-0.2-0.1-0.3
			C9,7.5,9,7.5,8.8,7.4C8.7,7.3,8.6,7.3,8.4,7.3C8.3,7.3,8.1,7.4,8,7.4l-1.6,2.7L5.8,9.7L7.2,7.2z"/>
		<path id="Path_34" class="st2" d="M13.4,8.9c0.2,0,0.4,0.1,0.6,0.2s0.3,0.2,0.3,0.3s0.1,0.1,0.1,0.2v0.2c0,0.1,0,0.2-0.1,0.3
			c0,0.1-0.1,0.2-0.1,0.4l-0.1-0.1c0.1-0.3,0.1-0.6-0.1-0.8c-0.2-0.2-0.4-0.4-0.6-0.5C13.2,9,13,9,12.9,9.1s-0.3,0.1-0.5,0.2
			c-0.2,0.1-0.3,0.3-0.3,0.5c-0.1,0.2-0.2,0.4-0.3,0.6c-0.1,0.2-0.1,0.4-0.1,0.7c0,0.2,0,0.4,0.1,0.5c0.1,0.4,0.4,0.7,0.7,0.7
			c0.2,0.1,0.5,0.1,0.7,0.1c0.2-0.1,0.4-0.2,0.6-0.3l0.1,0.1c-0.3,0.2-0.6,0.3-0.9,0.4c-0.3,0.1-0.6,0.1-0.9-0.1
			c-0.3-0.1-0.5-0.2-0.7-0.4c-0.2-0.1-0.3-0.3-0.4-0.5c-0.1-0.2-0.1-0.4-0.1-0.7s0.1-0.5,0.1-0.7c0.1-0.3,0.2-0.5,0.3-0.7
			s0.3-0.4,0.5-0.5s0.4-0.2,0.7-0.3C12.8,8.8,13,8.8,13.4,8.9z"/>
		<path id="Path_35" class="st2" d="M18.8,11.8l-2.5-0.1v0.6c0,0.2,0.1,0.4,0.2,0.5s0.2,0.3,0.3,0.3c0.1,0.1,0.3,0.1,0.5,0.1
			s0.5,0,0.7-0.1s0.3-0.3,0.5-0.5l0.1,0.1c-0.2,0.3-0.4,0.5-0.7,0.6c-0.3,0.1-0.5,0.2-0.8,0.1c-0.3,0-0.5-0.1-0.7-0.2
			c-0.2-0.1-0.4-0.3-0.5-0.5s-0.2-0.4-0.3-0.7s-0.1-0.5-0.1-0.8s0.1-0.5,0.1-0.7c0.1-0.2,0.2-0.4,0.3-0.6c0.2-0.2,0.4-0.3,0.5-0.4
			c0.2-0.1,0.4-0.1,0.7-0.1c0.8,0,1.5,0.6,1.6,1.4c0,0.2,0,0.3-0.1,0.5L18.8,11.8z M18.1,11.4c0-0.4,0-0.7-0.1-1.1
			c-0.1-0.2-0.3-0.4-0.6-0.4c-0.1,0-0.2,0-0.3,0.1c-0.1,0.1-0.2,0.2-0.3,0.3c-0.1,0.2-0.1,0.3-0.2,0.5s-0.1,0.3-0.1,0.6L18.1,11.4z"
			/>
		<path id="Path_36" class="st2" d="M25.7,12.2c0.3,0,0.5-0.2,0.7-0.4c0.1-0.2,0.2-0.5,0.1-0.7l0.1-0.1l0.1,0.5
			c0,0.1,0.1,0.1,0.1,0.3s0,0.1-0.1,0.2s-0.1,0.1-0.1,0.2c-0.1,0.1-0.2,0.1-0.3,0.1l-2.8,0.8l-0.1-0.5c0.2-0.5,0.5-0.9,0.8-1.4
			c0.2-0.3,0.4-0.7,0.5-1.1c0.1-0.3,0.2-0.6,0.3-0.9c0-0.3,0-0.6-0.1-0.9c-0.1-0.2-0.1-0.3-0.2-0.5c-0.1-0.1-0.2-0.2-0.3-0.3
			c-0.1-0.1-0.3-0.1-0.4-0.1s-0.3,0-0.4,0.1C23.3,7.8,23,8,22.8,8.2c-0.2,0.4-0.3,0.8-0.2,1.2h-0.1c-0.1-0.2-0.1-0.4-0.1-0.5
			c0-0.2,0-0.3,0.1-0.5S22.8,8,23,7.8s0.5-0.3,0.8-0.4c0.4-0.1,0.7-0.1,1.1,0c0.2,0.1,0.4,0.2,0.5,0.3c0.2,0.2,0.3,0.5,0.3,0.7
			c0.1,0.3,0.1,0.7,0,1c-0.1,0.4-0.2,0.7-0.4,1c-0.2,0.3-0.4,0.7-0.7,1.1c-0.3,0.4-0.5,0.8-0.7,1.2L25.7,12.2z"/>
		<path id="Path_37" class="st2" d="M27.8,5.6c0.3-0.2,0.6-0.3,0.9-0.3s0.6,0.1,0.8,0.2c0.3,0.2,0.5,0.4,0.7,0.6
			c0.2,0.3,0.5,0.6,0.7,1c0.2,0.3,0.4,0.7,0.5,1.1c0.1,0.3,0.2,0.6,0.1,1c0,0.3-0.1,0.6-0.2,0.8c-0.1,0.3-0.4,0.5-0.7,0.6
			c-0.3,0.1-0.6,0.2-0.9,0.3c-0.3,0-0.6-0.1-0.8-0.2c-0.3-0.2-0.5-0.4-0.7-0.6c-0.2-0.3-0.5-0.6-0.7-1C27.3,8.8,27.1,8.4,27,8
			c-0.1-0.3-0.2-0.6-0.1-1c0-0.3,0.1-0.6,0.2-0.8C27.3,5.9,27.5,5.7,27.8,5.6z M28,5.9c-0.2,0.1-0.3,0.2-0.4,0.4
			c-0.1,0.2-0.1,0.4-0.1,0.6c0,0.3,0.1,0.5,0.2,0.7c0.2,0.4,0.3,0.7,0.5,1s0.4,0.7,0.6,1c0.1,0.2,0.3,0.4,0.6,0.6
			c0.2,0.1,0.3,0.2,0.5,0.2s0.4,0,0.5-0.1c0.2-0.1,0.3-0.2,0.4-0.4C31,9.7,31,9.5,31,9.3c0-0.3-0.1-0.5-0.2-0.7
			c-0.2-0.4-0.3-0.7-0.5-1s-0.4-0.7-0.6-1c-0.1-0.2-0.3-0.4-0.5-0.6c-0.2-0.1-0.3-0.2-0.5-0.2C28.4,5.7,28.1,5.7,28,5.9L28,5.9z"/>
		<path id="Path_38" class="st2" d="M34.8,7.2l-0.5,0.5l-3.1-3.4l-0.2,1l-0.2-0.1L31,3.5l0.3-0.3L34.8,7.2z"/>
		<path id="Path_39" class="st2" d="M33.2,0.7c0.2-0.2,0.4-0.4,0.7-0.6C34.1,0,34.4,0,34.7,0s0.7,0.1,1,0.3c0.4,0.2,0.7,0.4,1,0.6
			c0.3,0.3,0.6,0.5,0.9,0.8C37.8,2,38,2.2,38.1,2.5s0.1,0.5,0.1,0.8c-0.1,0.3-0.2,0.6-0.4,0.8c-0.2,0.2-0.4,0.4-0.7,0.6
			c-0.3,0.1-0.5,0.2-0.8,0.1c-0.3,0-0.7-0.1-1-0.3c-0.4-0.2-0.7-0.4-1-0.6c-0.3-0.3-0.6-0.5-0.9-0.8C33.1,3,33,2.7,32.8,2.4
			c-0.1-0.3-0.1-0.5-0.1-0.8C32.9,1.3,33,1,33.2,0.7z M33.4,0.9c-0.1,0.2-0.2,0.3-0.2,0.5s0.1,0.4,0.1,0.5c0.1,0.2,0.3,0.4,0.5,0.6
			s0.5,0.5,0.9,0.7c0.3,0.2,0.6,0.4,1,0.6c0.2,0.1,0.5,0.2,0.7,0.3c0.2,0.1,0.4,0.1,0.6,0c0.2-0.1,0.3-0.2,0.5-0.3
			c0.1-0.2,0.2-0.3,0.2-0.5s-0.1-0.4-0.1-0.5c-0.1-0.2-0.3-0.4-0.5-0.6s-0.5-0.5-0.9-0.7c-0.3-0.2-0.6-0.4-1-0.6
			c-0.2-0.1-0.5-0.2-0.7-0.3s-0.4-0.1-0.6,0C33.7,0.7,33.6,0.8,33.4,0.9L33.4,0.9z"/>
	</g>
</g>
<circle id="Ellipse_9_2_" class="st7" cx="7.6" cy="28.9" r="2"/>
<circle id="Ellipse_9_1_" class="st7" cx="50.3" cy="28.9" r="2"/>
<g>
	<path id="SVGID_x5F_1_x5F_" class="st8" d="M13.2,22c3.1-8.3,12.9-12.4,21.9-9s13.8,12.8,10.7,21.1s-12.9,12.4-21.9,9
		C14.9,39.8,10.1,30.3,13.2,22z"/>
	<text class="st9 st10"> </text>
</g>
<g class="st11">
	<path class="st12" d="M70.2,23.1v15.8H69V22.6c0-1-0.2-1.7-0.6-2.2c-0.4-0.5-1.1-0.8-2.1-0.8H66v-0.6h2c0.9,0,1.7,0.1,2.3,0.5
		c0.6,0.3,1.2,0.8,1.7,1.3l10.5,13.1V19.1h1.2v20.1h-0.6L70.2,23.1z"/>
	<path class="st12" d="M90.3,22.6c0-1-0.1-1.8-0.4-2.3s-0.8-0.7-1.7-0.7h-0.6v-0.6h12.8c1.7,0,2.6,0.8,2.6,2.4v2.2h-0.6
		c0-2.3-1.2-3.4-3.8-3.4H93v7.8h8.1v1.2H93v8.4h5.2c1.4,0,2.5-0.2,3.2-0.8c0.8-0.5,1.4-1.3,1.9-2.5l0.6,0.2l-1.1,2.8
		c-0.4,1-1.1,1.5-2.2,1.5H90.3V22.6z"/>
	<path class="st12" d="M113.4,20.3h-2.7c-2.5,0-3.8,1.2-3.8,3.4h-0.6v-2.2c0-1.6,0.8-2.4,2.5-2.4h14v1.2h-6.8v18.6h-2.7V20.3z"/>
	<path class="st12" d="M138.2,38.1c-1.4-0.9-2.5-2.1-3.3-3.7s-1.1-3.3-1.1-5.2c0-2,0.4-3.8,1.2-5.4c0.8-1.7,2-3,3.4-3.9
		s3-1.4,4.7-1.4c1.6,0,3,0.2,4.2,0.7c1.2,0.4,2.1,1,2.7,1.7c0.3,0.4,0.5,1,0.6,1.7c0.1,0.7,0.1,1.6,0.1,2.8h-0.6
		c-0.4-1.9-1.1-3.4-2.1-4.3c-1-0.9-2.4-1.4-4-1.4c-2.2,0-3.9,0.8-5.2,2.3c-1.3,1.5-2,4-2,7.3c0,1.6,0.3,3.1,0.8,4.4
		c0.5,1.4,1.3,2.5,2.4,3.3c1.1,0.9,2.4,1.3,4,1.3c1.5,0,2.7-0.3,3.8-1.1c1.1-0.7,2.1-1.7,2.9-3.1l0.6,0.5c-0.9,1.8-2.1,3.1-3.4,3.8
		c-1.3,0.8-3,1.1-4.8,1.1C141.3,39.5,139.7,39,138.2,38.1z"/>
	<path class="st12" d="M169.2,38.2c-0.9-0.5-1.7-1.6-2.2-3.1l-0.8-2h-8.4l-2.4,5.7H154l8.4-19.8h0.9l6.6,16.1c0.5,1.2,1,2,1.4,2.4
		c0.4,0.4,1.1,0.7,1.9,0.8v0.6c-0.4,0.1-0.8,0.2-1.2,0.2C171.1,39,170.1,38.7,169.2,38.2z M158.2,32h7.4l-3.6-8.7L158.2,32z"/>
	<path class="st12" d="M176.5,22.6c0-1-0.1-1.8-0.4-2.3s-0.8-0.7-1.7-0.7h-0.6v-0.6h12c1.7,0,2.5,0.8,2.5,2.4v2.2h-0.6
		c0-2.3-1.2-3.4-3.8-3.4h-4.8v7.9h6.8v1.2h-6.8v9.5h-2.7V22.6z"/>
	<path class="st12" d="M193.2,22.6c0-1-0.1-1.8-0.4-2.3s-0.8-0.7-1.7-0.7h-0.6v-0.6h12.8c1.7,0,2.6,0.8,2.6,2.4v2.2h-0.6
		c0-2.3-1.2-3.4-3.8-3.4h-5.6v7.8h8.1v1.2h-8.1v8.4h5.2c1.4,0,2.5-0.2,3.2-0.8c0.8-0.5,1.4-1.3,1.9-2.5l0.6,0.2l-1,2.8
		c-0.4,1-1.1,1.5-2.2,1.5h-10.3V22.6z"/>
</g>
<g>
	<g>
		<path class="st2" d="M10.3,16l3.9,3.5l-0.3,0.3l-4.1-3.6c-0.2-0.2-0.5-0.3-0.7-0.3c-0.2,0-0.4,0.1-0.7,0.4l-0.1,0.1l-0.2-0.1
			l0.4-0.5c0.2-0.2,0.4-0.4,0.6-0.5c0.2-0.1,0.5-0.1,0.7-0.1l5.6,0.2L12,12l0.3-0.3l5,4.4l-0.1,0.2L10.3,16z"/>
		<path class="st2" d="M15.6,10.6c-0.2-0.3-0.3-0.5-0.5-0.6c-0.2-0.1-0.4-0.1-0.6,0.1l-0.2,0.1L14.2,10l3.7-2.2
			c0.5-0.3,0.9-0.2,1.1,0.3l0.4,0.6l-0.2,0.1c-0.4-0.7-0.9-0.8-1.7-0.3l-1.6,1l1.3,2.2l2.3-1.4l0.2,0.3L17.5,12l1.4,2.4l1.5-0.9
			c0.4-0.2,0.7-0.5,0.8-0.8c0.1-0.3,0.2-0.6,0.1-1l0.2-0.1l0.2,1c0.1,0.3-0.1,0.6-0.4,0.8l-3,1.8L15.6,10.6z"/>
		<path class="st2" d="M23.1,6.3l-0.9,0.2c-0.8,0.2-1.1,0.7-0.9,1.4l-0.2,0l-0.2-0.7c-0.1-0.5,0.1-0.8,0.6-1l4.5-1.1l0.1,0.4L24,6.1
			l1.5,6l-0.9,0.2L23.1,6.3z"/>
		<path class="st2" d="M31.6,11.5c-0.4-0.4-0.7-0.9-0.8-1.4c-0.1-0.6-0.2-1.1,0-1.8c0.1-0.6,0.4-1.2,0.8-1.7
			c0.4-0.5,0.8-0.8,1.4-1.1c0.5-0.2,1.1-0.3,1.6-0.2c0.5,0.1,1,0.3,1.3,0.5c0.4,0.2,0.6,0.5,0.8,0.7c0.1,0.2,0.1,0.4,0.1,0.6
			c0,0.2-0.1,0.5-0.1,0.9l-0.2,0c0-0.7-0.1-1.2-0.4-1.5c-0.3-0.4-0.7-0.6-1.2-0.7c-0.7-0.1-1.3,0-1.9,0.4c-0.5,0.4-0.9,1.2-1.1,2.3
			c-0.1,0.5-0.1,1,0,1.5c0.1,0.5,0.3,0.9,0.6,1.2c0.3,0.3,0.7,0.6,1.2,0.7c0.5,0.1,0.9,0.1,1.3-0.1s0.8-0.4,1.2-0.8l0.2,0.2
			c-0.4,0.5-0.9,0.9-1.4,1c-0.5,0.2-1,0.2-1.7,0C32.5,12.1,32,11.9,31.6,11.5z"/>
		<path class="st2" d="M36.8,13.2c-0.1-0.2-0.2-0.4-0.3-0.7s0-0.5,0.2-0.8c0.3-0.4,0.6-0.6,1.1-0.6c0.5,0,1.1,0.3,1.8,0.6l0.3,0.1
			c0.3-0.6,0.5-1,0.4-1.3c0-0.3-0.2-0.5-0.5-0.7c-0.3-0.1-0.5-0.2-0.7-0.2c-0.2,0-0.4,0.1-0.7,0.4L38,9.9c0.1-0.2,0.2-0.3,0.3-0.4
			c0.1-0.1,0.2-0.2,0.4-0.2c0.2,0,0.4,0,0.6,0.1c0.3,0.1,0.5,0.2,0.8,0.4c0.5,0.3,0.8,0.6,0.9,1s0,1-0.4,1.7l-1.3,2.3l-0.4-0.2
			l-0.1-0.6l0,0c-0.2,0.1-0.4,0.1-0.7,0.1c-0.3,0-0.5-0.1-0.8-0.3C37.1,13.6,36.9,13.4,36.8,13.2z M38.4,13.6c0.2,0,0.4-0.1,0.6-0.2
			l0.7-1.2l-0.3-0.1c-0.4-0.2-0.8-0.4-1.2-0.3c-0.3,0-0.6,0.2-0.7,0.4c-0.2,0.3-0.2,0.5-0.1,0.7c0.1,0.2,0.2,0.4,0.5,0.5
			C38.1,13.6,38.3,13.6,38.4,13.6z"/>
		<path class="st2" d="M43.2,12.4l-0.5-0.5l0.3-0.3l0.5,0.5l0.2-0.2c0.8-0.8,1.6-0.8,2.4,0c0.3,0.3,0.5,0.5,0.5,0.7
			c0,0.1,0,0.3-0.1,0.6l-0.4,0c0.1-0.4-0.1-0.7-0.4-1c-0.4-0.4-0.9-0.2-1.5,0.4l-0.2,0.2l1,1L44.8,14l-1-1l-3,3.1l-0.6-0.6
			L43.2,12.4z"/>
		<path class="st2" d="M42.7,17.8c0-0.4,0.1-0.7,0.4-1.1c0.2-0.3,0.5-0.6,0.9-0.9c0.4-0.2,0.8-0.4,1.2-0.5c0.4-0.1,0.8,0,1.1,0.1
			c0.3,0.1,0.6,0.4,0.8,0.7c0.4,0.6,0.5,1.1,0.3,1.6c-0.1,0.5-0.5,0.9-1.1,1.3l-0.3,0.2l-1.6-2.6c-0.5,0.3-0.8,0.6-1,1
			c-0.2,0.4-0.1,0.8,0.1,1.1c0.2,0.3,0.4,0.5,0.6,0.6c0.2,0.1,0.5,0.2,0.8,0.2l0,0.2c-0.4,0-0.8-0.1-1.1-0.2
			c-0.3-0.2-0.6-0.4-0.8-0.7C42.8,18.6,42.6,18.2,42.7,17.8z M45.8,18.3c0.5-0.3,0.8-0.6,1-0.9c0.2-0.3,0.2-0.6,0-0.9
			c-0.1-0.2-0.3-0.3-0.5-0.3c-0.2-0.1-0.5,0-0.7,0c-0.3,0.1-0.6,0.2-0.8,0.4L45.8,18.3z"/>
	</g>
</g>
</svg>
