<?xml version="1.0" encoding="utf-8"?>
<!-- Generator: Adobe Illustrator 27.4.0, SVG Export Plug-In . SVG Version: 6.00 Build 0)  -->
<svg version="1.1" id="Layer_2_00000111173164859984227760000000976476082841879228_"
	 xmlns="http://www.w3.org/2000/svg" xmlns:xlink="http://www.w3.org/1999/xlink" x="0px" y="0px" viewBox="0 0 57.9 57.9"
	 style="enable-background:new 0 0 57.9 57.9;" xml:space="preserve">
<style type="text/css">
	.st0{fill:#FFFFFF;}
	.st1{fill:#DD9F1C;}
	.st2{fill:#FFD56D;}
	.st3{fill:none;stroke:#FFFFFF;stroke-width:2.5;}
	.st4{display:none;}
	.st5{display:inline;fill:#FFFFFF;}
</style>
<g id="Group_23">
	<g id="Group_22">
		<path id="Intersection_1" class="st0" d="M20.7,40.9c-0.5-0.4-1-0.9-1.5-1.4h22.2c-0.5,0.5-1,0.9-1.5,1.4H20.7z"/>
		<circle id="Ellipse_11" class="st1" cx="29" cy="29" r="29"/>
		<g id="Ellipse_11-2">
			<circle id="Ellipse_13" class="st1" cx="29" cy="29" r="26.6"/>
			<g id="Group_19">
				<path id="Path_22" class="st0" d="M29,3.1c14.3,0,25.9,11.6,25.9,25.9S43.2,54.8,29,54.8S3.1,43.2,3.1,29l0,0
					C3.1,14.7,14.6,3.1,29,3.1C28.9,3.1,28.9,3.1,29,3.1 M29,1.7C13.9,1.7,1.7,13.9,1.7,29S13.9,56.2,29,56.2S56.2,44,56.2,29
					C56.2,13.9,44,1.7,29,1.7z"/>
			</g>
		</g>
		<g id="Ellipse_11-3">
			<circle id="Ellipse_14" class="st2" cx="29" cy="29" r="16"/>
			<path id="Path_23" class="st0" d="M29,13.6c8.5,0,15.3,6.9,15.3,15.3S37.4,44.2,29,44.2s-15.3-6.9-15.3-15.3
				C13.6,20.5,20.5,13.6,29,13.6 M28.9,12.3c-9.2,0-16.7,7.5-16.7,16.7s7.5,16.7,16.7,16.7S45.6,38.2,45.6,29
				C45.6,19.7,38.2,12.3,28.9,12.3z"/>
		</g>
		<path id="Path_13" class="st3" d="M37.3,27c0,0,4.7-2.2,5.2,1s-7.7,6-7.7,6"/>
		<path id="Path_11" class="st0" d="M17.7,21.1h20.4c0.8,0,1.4,0.6,1.4,1.4l-4.1,13.6c0,0.8-0.6,1.4-1.4,1.4H21.8
			c-0.8,0-1.4-0.6-1.4-1.4l-4.1-13.6C16.4,21.7,17,21.1,17.7,21.1z"/>
		<path id="Path_14" class="st1" d="M18.5,25.3c-0.1-0.2,3.2,10.9,3.2,10.9h12.2l3.2-11.1c0,0-1.8,2.5-5.9,1.9S25.5,20.2,18.5,25.3
			L18.5,25.3z"/>
		<path id="Intersection_1-2" class="st0" d="M19.4,40.9c-0.5-0.4-1-0.9-1.5-1.4h22.2c-0.5,0.5-1,0.9-1.5,1.4
			C38.6,40.9,19.3,40.9,19.4,40.9z"/>
		<g id="Group_20" class="st4">
			<path id="Path_24" class="st5" d="M8,17.7c-0.2,0-0.3-0.1-0.5-0.1H7.2c-0.1,0-0.2,0.1-0.3,0.1c-0.1,0.1-0.2,0.1-0.3,0.3l-0.1-0.1
				l0.1-0.1l0.1-0.1c0.1-0.1,0.2-0.2,0.3-0.3C6.9,17.1,7.1,17,7.2,17c0.2-0.1,0.4-0.1,0.6-0.1c0.3,0,0.5,0,0.8,0.1l3.9,1.2l-1.9-2.7
				l-0.7-0.2c-0.2,0-0.3-0.1-0.5-0.1H8.9c-0.1,0-0.2,0.1-0.3,0.1c-0.1,0.1-0.2,0.1-0.3,0.3l-0.1-0.1l0.1-0.1
				c0.1-0.1,0.1-0.1,0.1-0.1c0.1-0.1,0.2-0.2,0.3-0.3s0.3-0.2,0.4-0.3c0.2-0.1,0.4-0.1,0.6-0.1c0.3,0,0.5,0,0.8,0.1l3.9,1.2l-3-4.4
				l0.3-0.3l3.9,5.8l0,0l-4.2-1.4l2.5,3.6l-0.1,0.2L8,17.7L8,17.7z"/>
			<path id="Path_25" class="st5" d="M19.8,8.2c-0.3-0.4-0.8-0.7-1.3-0.9c-0.5-0.1-1,0-1.4,0.3c-0.3,0.1-0.5,0.3-0.7,0.6
				C16.2,8.4,16.1,8.7,16,9c-0.1,0.4,0,0.7,0.1,1.1c0.1,0.5,0.3,0.9,0.6,1.4c0.2,0.3,0.4,0.6,0.7,0.9c0.2,0.2,0.5,0.4,0.8,0.6
				c0.3,0.1,0.6,0.2,1,0.2s0.8-0.1,1.1-0.3c0.4-0.2,0.7-0.6,1-0.9c0.2-0.4,0.3-0.9,0.3-1.4h0.3c0,0.3,0,0.6-0.1,0.9
				c0,0.3-0.1,0.5-0.3,0.8c-0.1,0.2-0.3,0.4-0.5,0.6c-0.2,0.2-0.4,0.4-0.7,0.5c-0.4,0.2-0.8,0.4-1.2,0.4c-0.4,0.1-0.8,0-1.2-0.1
				s-0.8-0.3-1.1-0.6c-0.3-0.3-0.6-0.6-0.8-1s-0.4-0.8-0.5-1.3c-0.1-0.4-0.1-0.9,0-1.3c0.1-0.4,0.2-0.8,0.5-1.2
				c0.2-0.3,0.5-0.6,0.9-0.8c0.4-0.3,0.9-0.4,1.4-0.6c0.3-0.1,0.7-0.1,1,0.1c0.2,0.1,0.4,0.2,0.5,0.4c0.1,0.2,0.3,0.5,0.5,0.8
				L19.8,8.2L19.8,8.2z"/>
			<path id="Path_26" class="st5" d="M24.2,4.8c0.6-0.1,1.2-0.1,1.8,0c0.3,0.1,0.5,0.2,0.8,0.4c0.2,0.2,0.4,0.6,0.4,0.9
				c0.1,0.3,0,0.6-0.1,0.9c-0.2,0.3-0.5,0.6-0.9,0.8c0.3,0,0.5,0,0.8,0.1C27.2,8,27.4,8,27.5,8.2c0.1,0.1,0.2,0.3,0.3,0.4
				C27.9,8.8,27.9,9,28,9.2c0.1,0.3,0.1,0.6-0.1,0.9c-0.1,0.3-0.3,0.5-0.5,0.7s-0.5,0.4-0.8,0.4c-0.3,0.1-0.6,0.2-1,0.2l-2,0.3
				l-1-5.2c0-0.2-0.1-0.5-0.3-0.7c-0.1-0.3-0.3-0.3-0.5-0.3h-0.2l-0.1-0.2L24.2,4.8L24.2,4.8z M24.9,7.8c0.2-0.1,0.4-0.1,0.5-0.2
				s0.3-0.2,0.5-0.3C26,7.2,26.1,7,26.2,6.8c0.1-0.2,0.1-0.4,0-0.6c0-0.2-0.1-0.4-0.3-0.6c-0.1-0.2-0.3-0.3-0.5-0.3
				c-0.2-0.1-0.4-0.1-0.6-0.1s-0.4,0-0.6,0.1c-0.1,0-0.3,0.1-0.4,0.1c-0.1,0.1-0.3,0.1-0.3,0.1L24,7.9L24.9,7.8L24.9,7.8z M24,8.3
				l0.5,2.6H25c0.2,0,0.3,0,0.5-0.1c0.5-0.1,1-0.3,1.3-0.6s0.4-0.7,0.3-1.1c-0.1-0.4-0.3-0.8-0.7-0.9C25.9,8,25.4,8,25,8.1
				C24.9,8.1,24,8.3,24,8.3z"/>
			<path id="Path_27" class="st5" d="M38.4,8.4c0.1-0.5,0-1.1-0.2-1.6c-0.2-0.4-0.6-0.7-1.1-0.9c-0.3-0.1-0.6-0.1-1-0.1
				c-0.3,0-0.6,0.1-0.9,0.3c-0.3,0.2-0.6,0.4-0.8,0.8c-0.3,0.4-0.5,0.9-0.7,1.4c-0.1,0.4-0.2,0.7-0.2,1.1c0,0.3,0,0.7,0.1,1
				s0.2,0.6,0.5,0.9c0.2,0.3,0.6,0.5,1,0.6c0.4,0.2,0.9,0.2,1.3,0.1c0.5-0.1,0.9-0.4,1.2-0.7l0.1,0.2c-0.2,0.2-0.5,0.4-0.8,0.6
				c-0.2,0.1-0.5,0.2-0.8,0.3c-0.2,0.1-0.4,0.1-0.6,0.1c-0.3,0-0.6-0.1-0.8-0.2c-0.4-0.1-0.8-0.4-1.2-0.7c-0.3-0.3-0.5-0.6-0.7-0.9
				c-0.2-0.4-0.3-0.8-0.3-1.2s0.1-0.9,0.2-1.3C33,7.5,33.3,7,33.6,6.7s0.6-0.7,1-0.9c0.4-0.2,0.8-0.3,1.2-0.4s0.8,0,1.2,0.1
				c0.5,0.2,0.9,0.4,1.3,0.7c0.3,0.2,0.5,0.5,0.6,0.8c0.1,0.2,0.1,0.5,0,0.7c-0.1,0.3-0.2,0.6-0.3,0.8L38.4,8.4z"/>
			<path id="Path_28" class="st5" d="M40.6,15.1v-0.6h-0.1c-0.2,0.1-0.4,0.1-0.6,0c-0.3-0.1-0.6-0.2-0.8-0.4
				c-0.1-0.1-0.2-0.2-0.3-0.3s-0.2-0.3-0.3-0.5s-0.1-0.4-0.1-0.6c0-0.2,0.1-0.4,0.3-0.6c0.1-0.2,0.3-0.3,0.5-0.4s0.5-0.1,0.7,0
				c0.3,0.1,0.5,0.1,0.8,0.3s0.6,0.3,0.8,0.6l0.3,0.2c0.2-0.2,0.3-0.5,0.4-0.8c0.1-0.2,0.1-0.4,0.1-0.6c0-0.1-0.1-0.3-0.1-0.4
				c-0.1-0.1-0.2-0.2-0.3-0.3c-0.2-0.1-0.4-0.2-0.7-0.3c-0.2,0-0.5,0.1-0.7,0.3l-0.3-0.3c0.1-0.1,0.2-0.3,0.3-0.3
				c0.1-0.1,0.2-0.2,0.4-0.2h0.3c0.1,0,0.2,0.1,0.3,0.1c0.1,0.1,0.2,0.1,0.3,0.2c0.2,0.1,0.3,0.2,0.4,0.3c0.2,0.1,0.3,0.3,0.5,0.5
				c0.1,0.2,0.2,0.4,0.3,0.6c0,0.2,0,0.5-0.1,0.8c-0.1,0.4-0.3,0.7-0.5,0.9l-1.6,2.2C40.9,15.5,40.6,15.1,40.6,15.1z M41.7,13.1
				l-0.3-0.2c-0.3-0.3-0.7-0.4-1.1-0.5c-0.3,0-0.6,0.1-0.8,0.3l-0.2,0.4v0.3c0,0.1,0.1,0.2,0.1,0.3c0.1,0.1,0.1,0.2,0.3,0.3
				s0.3,0.2,0.5,0.2s0.4-0.1,0.5-0.1L41.7,13.1L41.7,13.1z"/>
			<path id="Path_29" class="st5" d="M48,13.9c-0.1-0.1-0.2-0.1-0.3-0.2c-0.1-0.1-0.2-0.1-0.3-0.1s-0.3,0.1-0.4,0.1
				c-0.2,0.1-0.3,0.2-0.5,0.3l-0.3,0.2l0.9,1l-0.3,0.3l-0.9-1l-3.3,2.8L42,16.6l3.3-2.8L45,13.3l0.3-0.3l0.5,0.6l0.2-0.2
				c0.2-0.2,0.5-0.3,0.8-0.4c0.2-0.1,0.5-0.1,0.7,0s0.4,0.1,0.5,0.3c0.1,0.1,0.3,0.3,0.5,0.4c0.3,0.3,0.4,0.6,0.4,0.8v0.3
				c0,0.1-0.1,0.2-0.1,0.3L48.4,15C48.4,14.6,48.3,14.2,48,13.9z"/>
			<path id="Path_30" class="st5" d="M47.8,21.4l-1.4-2.7c-0.2,0.1-0.4,0.2-0.6,0.4c-0.2,0.1-0.3,0.3-0.4,0.5
				c-0.1,0.2-0.1,0.4-0.1,0.5c0,0.2,0,0.4,0.1,0.5c0.1,0.2,0.3,0.5,0.5,0.6s0.5,0.2,0.8,0.3l-0.1,0.3c-0.4,0-0.8-0.1-1.1-0.3
				c-0.3-0.2-0.5-0.5-0.7-0.8c-0.1-0.3-0.2-0.6-0.3-0.9c0-0.3,0.1-0.5,0.1-0.8c0.1-0.2,0.3-0.5,0.5-0.7s0.5-0.4,0.8-0.5
				s0.6-0.3,0.9-0.3c0.3-0.1,0.6-0.1,0.9,0c0.3,0,0.5,0.2,0.8,0.3c0.2,0.2,0.4,0.4,0.5,0.7c0.3,0.5,0.4,1,0.2,1.6
				C49,20.6,48.5,21,48,21.3L47.8,21.4L47.8,21.4z M47.8,20.4c0.4-0.2,0.8-0.5,1-0.8s0.2-0.6,0.1-0.9c-0.1-0.1-0.2-0.2-0.3-0.3
				c-0.1-0.1-0.3-0.1-0.5-0.1s-0.4,0-0.6,0.1c-0.2,0.1-0.5,0.2-0.7,0.3L47.8,20.4L47.8,20.4z"/>
		</g>
		<g id="Group_21">
			<path id="Path_31" class="st0" d="M13.1,44.6c-0.2,0.1-0.4,0.2-0.6,0.3h-0.6c-0.2,0-0.4-0.1-0.6-0.2c-0.2-0.1-0.4-0.3-0.6-0.5
				c-0.1-0.2-0.2-0.3-0.3-0.5s-0.2-0.4-0.2-0.6c-0.1-0.2-0.1-0.4-0.1-0.5c0-0.2,0.1-0.3,0.2-0.4l0.7-0.5l0.1,0.1
				c-0.3,0.3-0.5,0.7-0.6,1.2c0,0.4,0.2,0.8,0.4,1.1c0.1,0.1,0.2,0.2,0.3,0.3s0.2,0.1,0.3,0.1H12c0.1,0,0.2-0.1,0.3-0.1
				c0.2-0.1,0.3-0.3,0.3-0.5c0-0.3,0-0.5-0.1-0.8l-0.2-1.2c-0.1-0.3-0.1-0.6,0-1c0.1-0.3,0.2-0.5,0.5-0.7c0.2-0.1,0.4-0.2,0.6-0.3
				c0.2-0.1,0.4-0.1,0.6,0c0.2,0,0.4,0.1,0.6,0.2c0.2,0.1,0.3,0.3,0.5,0.4s0.3,0.3,0.3,0.5c0.1,0.2,0.1,0.4,0.2,0.5
				c0.1,0.2,0.1,0.4,0,0.5c0,0.2-0.1,0.3-0.2,0.4L14.7,43l-0.1-0.1c0.3-0.3,0.5-0.7,0.6-1.2c0-0.4-0.2-0.7-0.4-1
				c-0.1-0.1-0.2-0.2-0.3-0.2c-0.1-0.1-0.2-0.1-0.3-0.1h-0.3c-0.1,0-0.2,0.1-0.3,0.1c-0.1,0.1-0.1,0.2-0.2,0.3
				c-0.1,0.1-0.1,0.2-0.1,0.3v0.3c0,0.2,0,0.3,0.1,0.5l0.2,1.2c0,0.2,0.1,0.4,0.1,0.5V44c0,0.1-0.1,0.2-0.1,0.3
				C13.3,44.4,13.1,44.5,13.1,44.6L13.1,44.6z"/>
			<path id="Path_32" class="st0" d="M14.1,47.3l-0.6-0.5l1.8-2.2c0.1-0.2,0.3-0.3,0.3-0.5s0-0.3-0.2-0.5l-0.1-0.1l0.1-0.1l0.6,0.5
				c0.1,0.1,0.2,0.2,0.3,0.3v0.2c0,0.1-0.1,0.2-0.1,0.3c-0.1,0.2-0.2,0.3-0.3,0.4L14.1,47.3L14.1,47.3z M17.1,43.7
				c-0.1,0.1-0.2,0.1-0.3,0.1s-0.2,0-0.3-0.1c-0.2-0.2-0.2-0.5,0-0.7c0.1-0.1,0.2-0.1,0.3-0.1s0.2,0,0.3,0.1
				c0.1,0.1,0.1,0.2,0.1,0.3C17.2,43.5,17.2,43.6,17.1,43.7L17.1,43.7z"/>
			<path id="Path_33" class="st0" d="M17.4,46.2c0.1-0.2,0.2-0.3,0.2-0.5s-0.1-0.3-0.3-0.4l-0.1-0.1l0.1-0.1l0.6,0.3
				c0.1,0.1,0.3,0.2,0.3,0.3c0.1,0.1,0.1,0.2,0.1,0.3h0.1c0.1-0.1,0.3-0.1,0.5-0.1s0.4,0.1,0.6,0.2c0.1,0.1,0.3,0.2,0.4,0.3
				s0.2,0.3,0.3,0.4c0.1,0.2,0.1,0.4,0.1,0.5c0,0.2-0.1,0.5-0.3,0.7l-1.2,2.1l-0.6-0.3l1.2-2.1c0-0.2,0.1-0.3,0.2-0.5v-0.4
				c0-0.1,0-0.2-0.1-0.3s-0.2-0.2-0.3-0.2c-0.1-0.1-0.3-0.2-0.4-0.1c-0.1,0-0.3,0.1-0.5,0.1L16.7,49L16,48.8L17.4,46.2L17.4,46.2z"
				/>
			<path id="Path_34" class="st0" d="M23.6,47.9c0.2,0.1,0.5,0.2,0.7,0.3s0.3,0.2,0.3,0.3s0.1,0.1,0.1,0.2v0.2c0,0.1,0,0.2-0.1,0.3
				c0,0.1-0.1,0.2-0.1,0.4l-0.1-0.1c0.1-0.3,0.1-0.6-0.1-0.8s-0.4-0.4-0.6-0.5s-0.4-0.1-0.5,0s-0.3,0.1-0.5,0.2
				c-0.1,0.1-0.3,0.3-0.3,0.5c-0.1,0.2-0.2,0.4-0.3,0.6C22,49.7,22,50,22,50.2s0,0.4,0.1,0.5c0.1,0.4,0.4,0.7,0.8,0.8
				c0.2,0,0.5,0.1,0.8,0.1c0.2-0.1,0.4-0.2,0.6-0.3l0.1,0.1c-0.3,0.2-0.6,0.3-0.9,0.4c-0.3,0.1-0.6,0-0.9-0.1s-0.5-0.2-0.8-0.4
				c-0.2-0.1-0.3-0.3-0.4-0.5s-0.1-0.4-0.1-0.7s0-0.5,0.1-0.8s0.2-0.5,0.3-0.8c0.1-0.2,0.3-0.4,0.5-0.5s0.4-0.2,0.7-0.3
				C23,47.8,23.2,47.8,23.6,47.9z"/>
			<path id="Path_35" class="st0" d="M29,50.8l-2.5-0.1v0.6c0,0.2,0.1,0.3,0.2,0.5s0.2,0.3,0.3,0.3c0.1,0.1,0.3,0.1,0.5,0.1
				s0.5,0,0.7-0.1s0.3-0.3,0.5-0.5l0.1,0.1c-0.2,0.3-0.4,0.5-0.7,0.6c-0.3,0.1-0.5,0.2-0.8,0.1c-0.3,0-0.5-0.1-0.8-0.2
				c-0.2-0.1-0.4-0.3-0.5-0.5s-0.2-0.4-0.3-0.7c-0.1-0.3-0.1-0.5-0.1-0.8s0-0.5,0.1-0.8c0.1-0.2,0.2-0.4,0.3-0.6
				c0.2-0.2,0.4-0.3,0.5-0.4c0.2-0.1,0.5-0.1,0.7-0.1c0.8,0,1.5,0.6,1.6,1.4c0,0.2,0,0.3-0.1,0.5C29.1,50.3,29,50.8,29,50.8z
				 M28.3,50.5c0-0.4,0-0.7-0.1-1.1c-0.1-0.2-0.3-0.4-0.6-0.4c-0.1,0-0.2,0-0.3,0.1c-0.1,0-0.2,0.2-0.3,0.3
				c-0.1,0.2-0.1,0.3-0.2,0.5s-0.1,0.3-0.1,0.6L28.3,50.5z"/>
			<path id="Path_36" class="st0" d="M35.9,51.2c0.3,0,0.5-0.2,0.7-0.4c0.1-0.2,0.2-0.5,0.1-0.7l0.1-0.1l0.1,0.5
				c0,0.1,0.1,0.1,0.1,0.3s0,0.1-0.1,0.2s-0.1,0.1-0.1,0.2c-0.1,0.1-0.2,0.1-0.3,0.1l-2.8,0.8l-0.1-0.5c0.2-0.5,0.5-0.9,0.8-1.4
				c0.2-0.3,0.4-0.7,0.5-1.1c0.1-0.3,0.2-0.6,0.3-0.9c0-0.3,0-0.6-0.1-0.9c0-0.2-0.1-0.3-0.2-0.5c-0.1-0.1-0.2-0.2-0.3-0.3
				s-0.3-0.1-0.4-0.1c-0.1,0-0.3,0-0.4,0.1c-0.3,0.1-0.6,0.3-0.8,0.5c-0.2,0.4-0.2,0.8-0.2,1.2h-0.1c-0.1-0.2-0.1-0.4-0.1-0.5
				c0-0.2,0-0.3,0.1-0.5s0.3-0.4,0.5-0.6c0.2-0.2,0.5-0.3,0.8-0.4c0.4-0.1,0.7-0.1,1.1,0c0.2,0.1,0.4,0.2,0.5,0.3
				c0.2,0.2,0.3,0.5,0.3,0.8c0.1,0.3,0.1,0.7,0,1c-0.1,0.4-0.2,0.7-0.4,1s-0.4,0.7-0.7,1.1c-0.3,0.4-0.5,0.8-0.8,1.2L35.9,51.2
				L35.9,51.2z"/>
			<path id="Path_37" class="st0" d="M38,44.6c0.3-0.2,0.6-0.3,0.9-0.3c0.3,0,0.6,0.1,0.8,0.2c0.3,0.2,0.5,0.4,0.8,0.6
				c0.2,0.3,0.5,0.6,0.7,1c0.2,0.3,0.4,0.7,0.5,1.1c0.1,0.3,0.2,0.6,0.1,1c0,0.3-0.1,0.6-0.2,0.8c-0.1,0.3-0.4,0.5-0.7,0.6
				s-0.6,0.2-0.9,0.3c-0.3,0-0.6-0.1-0.8-0.2c-0.3-0.2-0.5-0.4-0.8-0.6c-0.2-0.3-0.5-0.6-0.7-1c-0.2-0.3-0.4-0.7-0.5-1.1
				c-0.1-0.3-0.2-0.6-0.1-1c0-0.3,0.1-0.6,0.2-0.8C37.5,45,37.7,44.7,38,44.6L38,44.6z M38.2,44.9c-0.2,0.1-0.3,0.2-0.4,0.4
				c-0.1,0.2-0.1,0.4-0.1,0.6c0,0.3,0.1,0.5,0.2,0.8c0.2,0.3,0.3,0.7,0.5,1s0.4,0.7,0.6,1c0.2,0.2,0.3,0.4,0.5,0.6
				c0.2,0.1,0.3,0.2,0.5,0.2s0.4,0,0.5-0.1c0.2-0.1,0.3-0.2,0.4-0.4c0.1-0.2,0.1-0.4,0.1-0.6c0-0.3-0.1-0.5-0.2-0.8
				c-0.2-0.3-0.3-0.7-0.5-1s-0.4-0.7-0.6-1c-0.2-0.2-0.3-0.4-0.5-0.6c-0.2-0.1-0.3-0.2-0.5-0.2C38.6,44.7,38.3,44.8,38.2,44.9
				L38.2,44.9z"/>
			<path id="Path_38" class="st0" d="M45,46.2l-0.5,0.5l-3.1-3.4l-0.2,1L41,44.2l0.2-1.7l0.3-0.3L45,46.2L45,46.2z"/>
			<path id="Path_39" class="st0" d="M43.4,39.8c0.2-0.2,0.4-0.5,0.7-0.6s0.5-0.2,0.8-0.1c0.3,0,0.7,0.1,1,0.3
				c0.4,0.2,0.7,0.4,1,0.6c0.3,0.3,0.6,0.5,0.9,0.8c0.2,0.3,0.4,0.5,0.5,0.8c0.1,0.2,0.2,0.5,0.1,0.8c0,0.3-0.2,0.6-0.4,0.8
				s-0.4,0.5-0.7,0.6s-0.5,0.2-0.8,0.1c-0.3,0-0.7-0.1-1-0.3c-0.4-0.2-0.7-0.4-1-0.6c-0.3-0.3-0.6-0.5-0.9-0.8
				c-0.2-0.2-0.4-0.5-0.5-0.8c-0.1-0.2-0.2-0.5-0.1-0.8C43.1,40.3,43.2,40,43.4,39.8z M43.7,40c-0.1,0.2-0.2,0.3-0.2,0.5
				s0.1,0.4,0.1,0.5c0.1,0.2,0.3,0.4,0.5,0.6c0.2,0.2,0.5,0.5,0.9,0.8c0.3,0.2,0.6,0.4,1,0.6c0.2,0.1,0.5,0.2,0.8,0.3
				c0.2,0.1,0.4,0.1,0.6,0c0.2-0.1,0.3-0.2,0.5-0.3c0.1-0.2,0.2-0.3,0.2-0.5S48,42.1,48,42c-0.1-0.2-0.3-0.4-0.5-0.6
				c-0.2-0.2-0.5-0.5-0.9-0.8c-0.3-0.2-0.6-0.4-1-0.6c-0.2-0.1-0.5-0.2-0.8-0.3c-0.2-0.1-0.4-0.1-0.6,0C44,39.7,43.8,39.8,43.7,40
				L43.7,40L43.7,40z"/>
		</g>
	</g>
</g>
<g>
	<g>
		<path class="st0" d="M10.3,15.9l3.9,3.5L14,19.6l-4.1-3.6c-0.2-0.2-0.5-0.3-0.7-0.3c-0.2,0-0.4,0.1-0.7,0.4l-0.1,0.1l-0.2-0.1
			l0.4-0.5c0.2-0.2,0.4-0.4,0.6-0.5c0.2-0.1,0.5-0.1,0.7-0.1l5.6,0.2L12,11.9l0.3-0.3l5,4.4l-0.1,0.2L10.3,15.9z"/>
		<path class="st0" d="M15.7,10.5c-0.2-0.3-0.3-0.5-0.5-0.6C15,9.8,14.8,9.9,14.5,10l-0.2,0.1l-0.1-0.2l3.7-2.2
			c0.5-0.3,0.9-0.2,1.1,0.3l0.4,0.6l-0.2,0.1c-0.4-0.7-0.9-0.8-1.7-0.3l-1.6,1l1.3,2.2l2.3-1.4l0.2,0.3l-2.3,1.4l1.4,2.4l1.5-0.9
			c0.4-0.2,0.7-0.5,0.8-0.8c0.1-0.3,0.2-0.6,0.1-1l0.2-0.1l0.2,1c0.1,0.3-0.1,0.6-0.4,0.8l-3,1.8L15.7,10.5z"/>
		<path class="st0" d="M23.2,6.2l-0.9,0.2c-0.8,0.2-1.1,0.7-0.9,1.4l-0.2,0L21,7.2c-0.1-0.5,0.1-0.8,0.6-1l4.5-1.1l0.1,0.4L24,6
			l1.5,6l-0.9,0.2L23.2,6.2z"/>
		<path class="st0" d="M31.6,11.4C31.2,11,31,10.5,30.8,10c-0.1-0.6-0.2-1.1,0-1.8c0.1-0.6,0.4-1.2,0.8-1.7c0.4-0.5,0.8-0.8,1.4-1.1
			c0.5-0.2,1.1-0.3,1.6-0.2c0.5,0.1,1,0.3,1.3,0.5c0.4,0.2,0.6,0.5,0.8,0.7c0.1,0.2,0.1,0.4,0.1,0.6c0,0.2-0.1,0.5-0.1,0.9l-0.2,0
			c0-0.7-0.1-1.2-0.4-1.5c-0.3-0.4-0.7-0.6-1.2-0.7c-0.7-0.1-1.3,0-1.9,0.4c-0.5,0.4-0.9,1.2-1.1,2.3c-0.1,0.5-0.1,1,0,1.5
			c0.1,0.5,0.3,0.9,0.6,1.2c0.3,0.3,0.7,0.6,1.2,0.7c0.5,0.1,0.9,0.1,1.3-0.1s0.8-0.4,1.2-0.8l0.2,0.2c-0.4,0.5-0.9,0.9-1.4,1
			c-0.5,0.2-1,0.2-1.7,0C32.5,12,32,11.8,31.6,11.4z"/>
		<path class="st0" d="M36.8,13.1c-0.1-0.2-0.2-0.4-0.3-0.7s0-0.5,0.2-0.8c0.3-0.4,0.6-0.6,1.1-0.6c0.5,0,1.1,0.3,1.8,0.6l0.3,0.1
			c0.3-0.6,0.5-1,0.4-1.3c0-0.3-0.2-0.5-0.5-0.7c-0.3-0.1-0.5-0.2-0.7-0.2c-0.2,0-0.4,0.1-0.7,0.4l-0.4-0.2c0.1-0.2,0.2-0.3,0.3-0.4
			c0.1-0.1,0.2-0.2,0.4-0.2c0.2,0,0.4,0,0.6,0.1c0.3,0.1,0.5,0.2,0.8,0.4c0.5,0.3,0.8,0.6,0.9,1s0,1-0.4,1.7l-1.3,2.3l-0.4-0.2
			l-0.1-0.6l0,0c-0.2,0.1-0.4,0.1-0.7,0.1c-0.3,0-0.5-0.1-0.8-0.3C37.1,13.4,37,13.3,36.8,13.1z M38.5,13.5c0.2,0,0.4-0.1,0.6-0.2
			l0.7-1.2L39.5,12c-0.4-0.2-0.8-0.4-1.2-0.3c-0.3,0-0.6,0.2-0.7,0.4c-0.2,0.3-0.2,0.5-0.1,0.7c0.1,0.2,0.2,0.4,0.5,0.5
			C38.1,13.5,38.3,13.5,38.5,13.5z"/>
		<path class="st0" d="M43.2,12.3l-0.5-0.5l0.3-0.3l0.5,0.5l0.2-0.2c0.8-0.8,1.6-0.8,2.4,0c0.3,0.3,0.5,0.5,0.5,0.7
			c0,0.1,0,0.3-0.1,0.6l-0.4,0c0.1-0.4-0.1-0.7-0.4-1c-0.4-0.4-0.9-0.2-1.5,0.4l-0.2,0.2l1,1l-0.3,0.3l-1-1l-3,3.1l-0.6-0.6
			L43.2,12.3z"/>
		<path class="st0" d="M42.7,17.7c0-0.4,0.1-0.7,0.4-1.1c0.2-0.3,0.5-0.6,0.9-0.9c0.4-0.2,0.8-0.4,1.2-0.5c0.4-0.1,0.8,0,1.1,0.1
			c0.3,0.1,0.6,0.4,0.8,0.7c0.4,0.6,0.5,1.1,0.3,1.6c-0.1,0.5-0.5,0.9-1.1,1.3L46,19.2l-1.6-2.6c-0.5,0.3-0.8,0.6-1,1
			c-0.2,0.4-0.1,0.8,0.1,1.1c0.2,0.3,0.4,0.5,0.6,0.6c0.2,0.1,0.5,0.2,0.8,0.2l0,0.2c-0.4,0-0.8-0.1-1.1-0.2
			c-0.3-0.2-0.6-0.4-0.8-0.7C42.8,18.5,42.7,18.1,42.7,17.7z M45.8,18.2c0.5-0.3,0.8-0.6,1-0.9c0.2-0.3,0.2-0.6,0-0.9
			c-0.1-0.2-0.3-0.3-0.5-0.3c-0.2-0.1-0.5,0-0.7,0c-0.3,0.1-0.6,0.2-0.8,0.4L45.8,18.2z"/>
	</g>
</g>
</svg>
